<svg width="134" height="144" viewBox="0 0 134 144" fill="none" xmlns="http://www.w3.org/2000/svg">
<g style="mix-blend-mode:overlay">
<path d="M74.7335 13.6611C75.1603 13.5354 75.558 13.3255 75.9036 13.0437C76.2493 12.7618 76.5359 12.4136 76.7468 12.0193C76.9578 11.625 77.0889 11.1924 77.1326 10.7466C77.1762 10.3008 77.1315 9.85076 77.0011 9.42251C76.8707 8.99426 76.6572 8.59637 76.3729 8.25193C76.0886 7.9075 75.7392 7.62339 75.345 7.41609C74.9508 7.20878 74.5197 7.08241 74.0767 7.04431C73.6336 7.00622 73.1875 7.05715 72.7641 7.19416L50.9741 13.9309C50.5391 14.0491 50.1323 14.2544 49.7777 14.5344C49.4231 14.8144 49.1281 15.1634 48.9103 15.5606C48.6924 15.9578 48.5561 16.3952 48.5095 16.8466C48.4629 17.298 48.5069 17.7542 48.639 18.1881C48.7711 18.622 48.9885 19.0247 49.2783 19.3722C49.5681 19.7197 49.9243 20.0049 50.3258 20.2108C50.7273 20.4167 51.1658 20.5391 51.6152 20.5707C52.0646 20.6023 52.5158 20.5425 52.9418 20.3948L74.7335 13.6611Z" fill="white" fill-opacity="0.5"/>
<path fill-rule="evenodd" clip-rule="evenodd" d="M76.2836 37.2291C82.4533 33.6407 86.9552 27.7304 88.7991 20.7982C90.6429 13.866 89.6776 6.47986 86.1156 0.264634C82.5536 -5.95059 76.6865 -10.4858 69.8052 -12.3433C62.9238 -14.2007 55.5919 -13.2283 49.4223 -9.63997C43.2526 -6.0516 38.7507 -0.141228 36.9068 6.79096C35.063 13.7231 36.0283 21.1093 39.5903 27.3245C43.1523 33.5397 49.0194 38.0749 55.9007 39.9324C62.782 41.7899 70.114 40.8175 76.2836 37.2291ZM72.926 31.3705C75.2171 30.0379 77.2253 28.2637 78.8359 26.1493C80.4464 24.0349 81.6278 21.6216 82.3125 19.0473C82.9973 16.4729 83.172 13.7879 82.8266 11.1456C82.4813 8.50319 81.6227 5.95522 80.2999 3.64712C78.9771 1.33901 77.216 -0.684013 75.1171 -2.30646C73.0182 -3.92891 70.6226 -5.11901 68.0671 -5.80881C65.5117 -6.4986 62.8463 -6.67458 60.2234 -6.32671C57.6004 -5.97883 55.0711 -5.11392 52.7799 -3.78133C48.1527 -1.09006 44.7763 3.34272 43.3934 8.54186C42.0105 13.741 42.7344 19.2806 45.406 23.942C48.0775 28.6034 52.4778 32.0048 57.6388 33.3979C62.7998 34.791 68.2987 34.0617 72.926 31.3705ZM4.79142 28.9922C0.338074 25.5988 -6.21883 28.8109 -6.35675 34.449L-7.45114 78.5683C-7.57816 83.6572 -2.2747 86.978 2.36018 84.708L38.2848 67.1179C42.9184 64.8526 43.6429 58.5804 39.6246 55.5198L4.79142 28.9922ZM0.361059 34.5686C0.357789 34.5852 0.355775 34.6021 0.355035 34.619L-0.734677 78.6653L-0.725503 78.6678C-0.713403 78.6675 -0.701376 78.6658 -0.689709 78.6626C-0.649298 78.6543 -0.610149 78.6408 -0.573278 78.6222L35.3542 61.0304C35.4158 61.0024 35.4473 60.9763 35.4647 60.9661C35.4932 60.9418 35.5138 60.9094 35.5239 60.8732L0.743006 34.3894L0.714587 34.3669C0.651506 34.3703 0.589913 34.3875 0.534061 34.4172C0.469347 34.447 0.412691 34.492 0.368883 34.5485L0.361839 34.5565L0.363517 34.5594L0.361059 34.5686ZM104.419 76.9517C107.484 72.5425 108.685 67.0872 107.758 61.7859C106.83 56.4846 103.85 51.7716 99.4735 48.6837C97.3062 47.1547 94.8613 46.0707 92.2782 45.4936C89.6951 44.9165 87.0245 44.8576 84.4188 45.3203C79.1564 46.2546 74.478 49.2566 71.4128 53.6658L48.3023 86.9173C46.7847 89.1004 45.7088 91.5633 45.1361 94.1653C44.5634 96.7673 44.505 99.4574 44.9643 102.082C45.4236 104.707 46.3916 107.215 47.813 109.463C49.2344 111.71 51.0814 113.654 53.2485 115.183C55.4156 116.712 57.8604 117.796 60.4433 118.373C63.0262 118.95 65.6966 119.008 68.3021 118.546C70.9076 118.083 73.397 117.108 75.6284 115.676C77.8598 114.244 79.7893 112.383 81.3069 110.2L104.417 76.9488L104.419 76.9517ZM53.8031 90.799C52.7706 92.2535 52.0346 93.8998 51.6376 95.6426C51.2405 97.3854 51.1903 99.1901 51.4899 100.953C51.7895 102.715 52.4329 104.4 53.3829 105.911C54.3329 107.421 55.5707 108.727 57.0247 109.752C58.4787 110.778 60.1201 111.503 61.854 111.886C63.5879 112.268 65.3799 112.301 67.1263 111.982C68.8728 111.662 70.5391 110.997 72.0289 110.025C73.5187 109.053 74.8025 107.793 75.8061 106.318L85.2954 92.6636L63.2954 77.1425L53.8014 90.7961L53.8031 90.799ZM89.1487 87.1221L67.1457 71.6027L76.9136 57.5476C77.9137 56.0643 79.1965 54.7961 80.6873 53.8166C82.1782 52.8372 83.8475 52.166 85.5982 51.8422C87.3488 51.5183 89.1459 51.5483 90.885 51.9302C92.624 52.3122 94.2704 53.0386 95.7283 54.0672C97.1862 55.0958 98.4267 56.406 99.3775 57.9218C100.328 59.4376 100.971 61.1286 101.267 62.8966C101.563 64.6647 101.508 66.4744 101.104 68.2207C100.7 69.9669 99.9554 71.6149 98.9137 73.0687L89.1487 87.1221Z" fill="white" fill-opacity="0.5"/>
</g>
</svg>
